<svg width="60" height="60" viewBox="0 0 60 60" fill="none" xmlns="http://www.w3.org/2000/svg">
<g id="api-interface_svgrepo.com">
<path id="Vector" d="M24.0319 25.8882L22.7793 29.329H25.3139L24.0319 25.8882Z" fill="#421E89"/>
<path id="Vector_2" d="M34.1262 27.7816C34.3767 27.6859 34.5683 27.5311 34.7083 27.3248C34.8483 27.1185 34.922 26.8754 34.922 26.6028C34.922 26.2638 34.8262 25.9839 34.6272 25.7702C34.4283 25.5491 34.1778 25.4165 33.8757 25.3576C33.6547 25.3134 33.2052 25.2913 32.5274 25.2913H31.6211V27.9216H32.6452C33.382 27.929 33.8757 27.8774 34.1262 27.7816Z" fill="#421E89"/>
<path id="Vector_3" d="M39.9471 42.3923H18.1526C17.541 42.3923 17.04 41.8913 17.04 41.2797V19.5442C17.04 19.1389 16.7084 18.8074 16.3032 18.8074C15.898 18.8074 15.5664 19.1389 15.5664 19.5442V41.2797C15.5664 42.7091 16.7232 43.8659 18.1526 43.8659H39.9471C40.3523 43.8659 40.6839 43.5344 40.6839 43.1291C40.6839 42.7239 40.3597 42.3923 39.9471 42.3923Z" fill="#421E89"/>
<path id="Vector_4" d="M55.9071 20.9516C56.7176 20.9516 57.3807 20.2884 57.3807 19.478C57.3807 18.6675 56.7176 18.0044 55.9071 18.0044H50.7716V13.8193C50.7716 10.9753 48.458 8.66175 45.614 8.66175H43.5657V3.70309C43.5657 2.89261 42.9026 2.22949 42.0921 2.22949C41.2816 2.22949 40.6185 2.89261 40.6185 3.70309V8.66175H37.1924V3.70309C37.1924 2.89261 36.5293 2.22949 35.7188 2.22949C34.9083 2.22949 34.2452 2.89261 34.2452 3.70309V8.66175H30.8191V3.70309C30.8191 2.89261 30.156 2.22949 29.3455 2.22949C28.535 2.22949 27.8719 2.89261 27.8719 3.70309V8.66175H24.4458V3.70309C24.4458 2.89261 23.7826 2.22949 22.9722 2.22949C22.1617 2.22949 21.4986 2.89261 21.4986 3.70309V8.66175H15.1768C12.3328 8.66175 10.0192 10.9753 10.0192 13.8193V18.0044H4.88375C4.07328 18.0044 3.41016 18.6675 3.41016 19.478C3.41016 20.2884 4.07328 20.9516 4.88375 20.9516H10.0192V24.3777H4.88375C4.07328 24.3777 3.41016 25.0408 3.41016 25.8513C3.41016 26.6617 4.07328 27.3249 4.88375 27.3249H10.0192V30.751H4.88375C4.07328 30.751 3.41016 31.4141 3.41016 32.2246C3.41016 33.0351 4.07328 33.6982 4.88375 33.6982H10.0192V37.1243H4.88375C4.07328 37.1243 3.41016 37.7874 3.41016 38.5979C3.41016 39.4084 4.07328 40.0715 4.88375 40.0715H10.0192V44.2565C10.0192 47.1006 12.3328 49.4141 15.1768 49.4141H17.4462V54.7559C17.4462 55.5664 18.1093 56.2295 18.9198 56.2295C19.7303 56.2295 20.3934 55.5664 20.3934 54.7559V49.4141H23.8195V54.7559C23.8195 55.5664 24.4826 56.2295 25.2931 56.2295C26.1036 56.2295 26.7667 55.5664 26.7667 54.7559V49.4141H30.1928V54.7559C30.1928 55.5664 30.8559 56.2295 31.6664 56.2295C32.4769 56.2295 33.14 55.5664 33.14 54.7559V49.4141H36.5661V54.7559C36.5661 55.5664 37.2292 56.2295 38.0397 56.2295C38.8502 56.2295 39.5133 55.5664 39.5133 54.7559V49.4141H45.614C48.458 49.4141 50.7716 47.1006 50.7716 44.2565V40.0715H55.9071C56.7176 40.0715 57.3807 39.4084 57.3807 38.5979C57.3807 37.7874 56.7176 37.1243 55.9071 37.1243H50.7716V33.6982H55.9071C56.7176 33.6982 57.3807 33.0351 57.3807 32.2246C57.3807 31.4141 56.7176 30.751 55.9071 30.751H50.7716V27.3249H55.9071C56.7176 27.3249 57.3807 26.6617 57.3807 25.8513C57.3807 25.0408 56.7176 24.3777 55.9071 24.3777H50.7716V20.9516H55.9071ZM47.8244 44.2491C47.8244 45.4649 46.8297 46.4595 45.614 46.4595H15.1768C13.9611 46.4595 12.9664 45.4649 12.9664 44.2491V13.8193C12.9664 12.6036 13.9611 11.6089 15.1768 11.6089H45.614C46.8297 11.6089 47.8244 12.6036 47.8244 13.8193V44.2491Z" fill="#421E89"/>
<path id="Vector_5" d="M22.2048 30.8909H25.9109L26.7214 32.9982H28.755L25.0415 23.7292H23.0595L19.4492 32.9982H21.4386L22.2048 30.8909ZM24.0321 25.8881L25.3068 29.3289H22.7795L24.0321 25.8881ZM31.6211 29.5058H32.8442C33.6915 29.5058 34.3399 29.4615 34.7894 29.3731C35.1209 29.2994 35.4451 29.1521 35.7619 28.931C36.0788 28.71 36.344 28.4079 36.5503 28.0174C36.7566 27.6269 36.8598 27.148 36.8598 26.5807C36.8598 25.8439 36.6829 25.2397 36.3219 24.7755C35.9609 24.3113 35.5188 24.0092 34.9883 23.8692C34.642 23.7735 33.8978 23.7292 32.7632 23.7292H29.7497V32.9982H31.6211V29.5058ZM31.6211 25.2986H32.5274C33.2053 25.2986 33.6473 25.3207 33.8757 25.3649C34.1778 25.4165 34.4283 25.5565 34.6273 25.7775C34.8262 25.9986 34.922 26.2786 34.922 26.6101C34.922 26.8827 34.8483 27.1259 34.7083 27.3322C34.5683 27.5385 34.3694 27.6932 34.1263 27.789C33.8757 27.8848 33.3821 27.9364 32.6453 27.9364H31.6211V25.2986ZM38.3334 23.7292H40.2048V32.9982H38.3334V23.7292Z" fill="#421E89"/>
</g>
</svg>
