<svg width="61" height="60" viewBox="0 0 61 60" fill="none" xmlns="http://www.w3.org/2000/svg">
<g id="app-browser-window_svgrepo.com" clip-path="url(#clip0_0_125)">
<path id="Vector" d="M59.5625 11.25H1.4375C1.18886 11.25 0.950403 11.1512 0.774587 10.9754C0.598772 10.7996 0.5 10.5611 0.5 10.3125C0.5 10.0639 0.598772 9.8254 0.774587 9.64959C0.950403 9.47377 1.18886 9.375 1.4375 9.375H59.5625C59.8111 9.375 60.0496 9.47377 60.2254 9.64959C60.4012 9.8254 60.5 10.0639 60.5 10.3125C60.5 10.5611 60.4012 10.7996 60.2254 10.9754C60.0496 11.1512 59.8111 11.25 59.5625 11.25Z" fill="#421E89"/>
<path id="Vector_2" d="M54.875 4.6875C54.6896 4.6875 54.5083 4.74248 54.3542 4.8455C54.2 4.94851 54.0798 5.09493 54.0089 5.26623C53.9379 5.43754 53.9193 5.62604 53.9555 5.8079C53.9917 5.98975 54.081 6.1568 54.2121 6.28791C54.3432 6.41902 54.5102 6.50831 54.6921 6.54449C54.874 6.58066 55.0625 6.56209 55.2338 6.49114C55.4051 6.42018 55.5515 6.30002 55.6545 6.14585C55.7575 5.99168 55.8125 5.81042 55.8125 5.625C55.8125 5.37636 55.7137 5.1379 55.5379 4.96209C55.3621 4.78627 55.1236 4.6875 54.875 4.6875Z" fill="#421E89"/>
<path id="Vector_3" d="M51.125 4.6875C50.9396 4.6875 50.7583 4.74248 50.6042 4.8455C50.45 4.94851 50.3298 5.09493 50.2589 5.26623C50.1879 5.43754 50.1693 5.62604 50.2055 5.8079C50.2417 5.98975 50.331 6.1568 50.4621 6.28791C50.5932 6.41902 50.7602 6.50831 50.9421 6.54449C51.124 6.58066 51.3125 6.56209 51.4838 6.49114C51.6551 6.42018 51.8015 6.30002 51.9045 6.14585C52.0075 5.99168 52.0625 5.81042 52.0625 5.625C52.0625 5.37636 51.9637 5.1379 51.7879 4.96209C51.6121 4.78627 51.3736 4.6875 51.125 4.6875Z" fill="#421E89"/>
<path id="Vector_4" d="M47.375 4.6875C47.1896 4.6875 47.0083 4.74248 46.8542 4.8455C46.7 4.94851 46.5798 5.09493 46.5089 5.26623C46.4379 5.43754 46.4193 5.62604 46.4555 5.8079C46.4917 5.98975 46.581 6.1568 46.7121 6.28791C46.8432 6.41902 47.0102 6.50831 47.1921 6.54449C47.374 6.58066 47.5625 6.56209 47.7338 6.49114C47.9051 6.42018 48.0515 6.30002 48.1545 6.14585C48.2575 5.99168 48.3125 5.81042 48.3125 5.625C48.3125 5.37636 48.2137 5.1379 48.0379 4.96209C47.8621 4.78627 47.6236 4.6875 47.375 4.6875Z" fill="#421E89"/>
<path id="Vector_5" d="M57.2188 60H3.78125C2.91101 60 2.07641 59.6543 1.46106 59.0389C0.845702 58.4236 0.5 57.589 0.5 56.7188L0.5 3.28125C0.5 2.41101 0.845702 1.57641 1.46106 0.961056C2.07641 0.345702 2.91101 0 3.78125 0L57.2188 0C58.089 0 58.9236 0.345702 59.5389 0.961056C60.1543 1.57641 60.5 2.41101 60.5 3.28125V56.7188C60.5 57.589 60.1543 58.4236 59.5389 59.0389C58.9236 59.6543 58.089 60 57.2188 60ZM3.78125 1.875C3.40829 1.875 3.0506 2.02316 2.78688 2.28688C2.52316 2.5506 2.375 2.90829 2.375 3.28125V56.7188C2.375 57.0917 2.52316 57.4494 2.78688 57.7131C3.0506 57.9768 3.40829 58.125 3.78125 58.125H57.2188C57.5917 58.125 57.9494 57.9768 58.2131 57.7131C58.4768 57.4494 58.625 57.0917 58.625 56.7188V3.28125C58.625 2.90829 58.4768 2.5506 58.2131 2.28688C57.9494 2.02316 57.5917 1.875 57.2188 1.875H3.78125Z" fill="#421E89"/>
<path id="Vector_6" d="M56.1055 58.75H4.89453C4.06055 58.75 3.26073 58.4187 2.67101 57.829C2.0813 57.2393 1.75 56.4394 1.75 55.6055V4.39453C1.75 3.56055 2.0813 2.76073 2.67101 2.17101C3.26073 1.5813 4.06055 1.25 4.89453 1.25L56.1055 1.25C56.9394 1.25 57.7393 1.5813 58.329 2.17101C58.9187 2.76073 59.25 3.56055 59.25 4.39453V55.6055C59.25 56.4394 58.9187 57.2393 58.329 57.829C57.7393 58.4187 56.9394 58.75 56.1055 58.75ZM4.89453 3.04688C4.53711 3.04688 4.19433 3.18886 3.94159 3.44159C3.68886 3.69433 3.54688 4.03711 3.54688 4.39453V55.6055C3.54688 55.9629 3.68886 56.3057 3.94159 56.5584C4.19433 56.8111 4.53711 56.9531 4.89453 56.9531H56.1055C56.4629 56.9531 56.8057 56.8111 57.0584 56.5584C57.3111 56.3057 57.4531 55.9629 57.4531 55.6055V4.39453C57.4531 4.03711 57.3111 3.69433 57.0584 3.44159C56.8057 3.18886 56.4629 3.04688 56.1055 3.04688H4.89453Z" fill="#421E89"/>
</g>
<defs>
<clipPath id="clip0_0_125">
<rect width="60" height="60" fill="white" transform="translate(0.5)"/>
</clipPath>
</defs>
</svg>
