<svg width="200" height="134" viewBox="0 0 200 134" fill="none" xmlns="http://www.w3.org/2000/svg">
<g id="database">
<mask id="mask0_0_189" style="mask-type:alpha" maskUnits="userSpaceOnUse" x="0" y="0" width="200" height="134">
<rect id="Bounding box" width="120" height="120" transform="matrix(0.83205 0.5547 -0.830139 0.557556 99.6172 0)" fill="#D9D9D9"/>
</mask>
<g mask="url(#mask0_0_189)">
<path id="database_2" d="M59.8857 93.4979C48.7177 86.0526 40.9849 78.6014 36.6873 71.1443C32.3898 63.6872 32.7129 58.2983 37.6569 54.9778L81.931 25.2415C86.8011 21.9705 94.8717 21.7712 106.143 24.6437C117.414 27.5162 128.559 32.6258 139.579 39.9725C150.599 47.3192 158.276 54.7582 162.611 62.2894C166.946 69.8206 166.678 75.2217 161.808 78.4927L117.534 108.229C112.59 111.55 104.538 111.786 93.3777 108.938C82.2177 106.09 71.0536 100.943 59.8857 93.4979ZM113.9 57.2196C120.261 61.46 127.765 65.1546 136.414 68.3035C145.063 71.4524 151.566 72.8501 155.924 72.4966C156.289 69.5794 154.12 65.2206 149.419 59.4202C144.718 53.6198 139.225 48.6241 132.938 44.433C126.429 40.094 118.925 36.3746 110.424 33.2749C101.923 30.1752 95.3824 28.7776 90.8026 29.082C90.2908 32.1973 92.3484 36.5562 96.9752 42.159C101.602 47.7618 107.244 52.782 113.9 57.2196ZM90.1025 73.0546C93.2088 75.1255 96.4812 77.0848 99.9195 78.9327C103.358 80.7806 106.833 82.4306 110.344 83.8829C113.856 85.3351 117.386 86.602 120.934 87.6834C124.482 88.7649 127.881 89.5994 131.133 90.187L148.289 78.6642C144.963 78.0273 141.527 77.1681 137.979 76.0867C134.431 75.0052 130.883 73.726 127.334 72.2491C123.786 70.7722 120.311 69.1469 116.909 67.3731C113.508 65.5993 110.254 63.677 107.148 61.6061C104.042 59.5352 101.12 57.3404 98.3825 55.0218C95.6451 52.7031 93.1847 50.3716 91.0014 48.0272C88.818 45.6828 86.9302 43.338 85.3378 40.9926C83.7455 38.6473 82.5412 36.4124 81.7249 34.2882L64.5687 45.811C65.385 47.9353 66.5708 50.1578 68.1262 52.4785C69.6815 54.7992 71.5509 57.1317 73.7342 59.4761C75.9176 61.8204 78.3964 64.1395 81.1707 66.4335C83.9449 68.7274 86.9222 70.9344 90.1025 73.0546ZM66.5268 89.0375C70.0769 91.4042 74.0515 93.6343 78.4507 95.7276C82.8499 97.821 87.1376 99.5685 91.314 100.97C95.4904 102.372 99.2967 103.379 102.733 103.991C106.169 104.603 108.773 104.611 110.545 104.014L124.381 94.7218C121.129 94.1342 117.748 93.2873 114.237 92.1811C110.726 91.0748 107.215 89.7956 103.703 88.3433C100.192 86.8911 96.7353 85.2533 93.3339 83.4301C89.9325 81.6069 86.6417 79.6352 83.4614 77.515C80.2811 75.3949 77.3038 73.1878 74.5295 70.8939C71.7553 68.6 69.2765 66.2809 67.0931 63.9365C64.9098 61.5922 63.022 59.272 61.4297 56.9761C59.8374 54.6802 58.6332 52.4701 57.8169 50.3458L43.8705 59.7128C42.9859 60.8018 42.9704 62.495 43.8239 64.7922C44.6774 67.0894 46.1962 69.6326 48.3803 72.4218C50.5644 75.2111 53.2289 78.0737 56.3736 81.0096C59.5183 83.9455 62.9027 86.6215 66.5268 89.0375Z" fill="#421E89"/>
</g>
</g>
</svg>
