<svg width="101" height="100" viewBox="0 0 101 100" fill="none" xmlns="http://www.w3.org/2000/svg">
<g id="Group 29">
<g id="Rectangle 2" filter="url(#filter0_b_0_142)">
<rect x="0.25" width="100" height="100" rx="10.0077" fill="#FCE7FF" fill-opacity="0.2"/>
<rect x="0.5625" y="0.3125" width="99.375" height="99.375" rx="9.69517" stroke="url(#paint0_linear_0_142)" stroke-width="0.625"/>
</g>
<g id="database">
<mask id="mask0_0_142" style="mask-type:alpha" maskUnits="userSpaceOnUse" x="17" y="17" width="66" height="66">
<rect id="Bounding box" x="17.75" y="17.5" width="65" height="65" fill="#D9D9D9"/>
</mask>
<g mask="url(#mask0_0_142)">
<path id="database_2" d="M50.25 76C42.9796 76 36.8287 74.8806 31.7972 72.6417C26.7657 70.4028 24.25 67.6704 24.25 64.4444V35.5556C24.25 32.3778 26.7898 29.6574 31.8694 27.3944C36.9491 25.1315 43.0759 24 50.25 24C57.4241 24 63.5509 25.1315 68.6306 27.3944C73.7102 29.6574 76.25 32.3778 76.25 35.5556V64.4444C76.25 67.6704 73.7343 70.4028 68.7028 72.6417C63.6713 74.8806 57.5204 76 50.25 76ZM50.25 40.7556C54.3907 40.7556 58.6398 40.1176 62.9972 38.8417C67.3546 37.5657 70.1593 36.1333 71.4111 34.5444C70.1111 33.0037 67.2824 31.5833 62.925 30.2833C58.5676 28.9833 54.3426 28.3333 50.25 28.3333C46.013 28.3333 41.7519 28.9593 37.4667 30.2111C33.1815 31.463 30.3648 32.9074 29.0167 34.5444C30.3648 36.2296 33.1574 37.6861 37.3944 38.9139C41.6315 40.1417 45.9167 40.7556 50.25 40.7556ZM50.1778 56.2111C52.2 56.2111 54.2222 56.1028 56.2444 55.8861C58.2667 55.6694 60.2046 55.3444 62.0583 54.9111C63.912 54.4778 65.6815 53.9482 67.3667 53.3222C69.0519 52.6963 70.5685 51.9981 71.9167 51.2278V40.0333C70.5204 40.8037 68.9796 41.5019 67.2944 42.1278C65.6093 42.7537 63.8278 43.2833 61.95 43.7167C60.0722 44.15 58.1463 44.487 56.1722 44.7278C54.1982 44.9685 52.2 45.0889 50.1778 45.0889C48.1556 45.0889 46.1333 44.9685 44.1111 44.7278C42.0889 44.487 40.1509 44.15 38.2972 43.7167C36.4435 43.2833 34.6861 42.7537 33.025 42.1278C31.3639 41.5019 29.8833 40.8037 28.5833 40.0333V51.2278C29.8833 51.9981 31.3519 52.6963 32.9889 53.3222C34.6259 53.9482 36.3713 54.4778 38.225 54.9111C40.0787 55.3444 42.0167 55.6694 44.0389 55.8861C46.0611 56.1028 48.1074 56.2111 50.1778 56.2111ZM50.25 71.6667C52.5611 71.6667 54.9444 71.462 57.4 71.0528C59.8556 70.6435 62.1065 70.1019 64.1528 69.4278C66.1991 68.7537 67.9324 68.0074 69.3528 67.1889C70.7732 66.3704 71.6278 65.5278 71.9167 64.6611V55.6333C70.5685 56.4037 69.0519 57.0898 67.3667 57.6917C65.6815 58.2935 63.912 58.8111 62.0583 59.2444C60.2046 59.6778 58.2787 60.0028 56.2806 60.2194C54.2824 60.4361 52.2482 60.5444 50.1778 60.5444C48.1074 60.5444 46.0611 60.4361 44.0389 60.2194C42.0167 60.0028 40.0787 59.6778 38.225 59.2444C36.3713 58.8111 34.6259 58.2935 32.9889 57.6917C31.3519 57.0898 29.8833 56.4037 28.5833 55.6333V64.7333C28.8241 65.5519 29.6426 66.3824 31.0389 67.225C32.4352 68.0676 34.1685 68.8139 36.2389 69.4639C38.3093 70.1139 40.5722 70.6435 43.0278 71.0528C45.4833 71.462 47.8907 71.6667 50.25 71.6667Z" fill="#421E89"/>
</g>
</g>
</g>
<defs>
<filter id="filter0_b_0_142" x="-13.0936" y="-13.3436" width="126.687" height="126.687" filterUnits="userSpaceOnUse" color-interpolation-filters="sRGB">
<feFlood flood-opacity="0" result="BackgroundImageFix"/>
<feGaussianBlur in="BackgroundImageFix" stdDeviation="6.67178"/>
<feComposite in2="SourceAlpha" operator="in" result="effect1_backgroundBlur_0_142"/>
<feBlend mode="normal" in="SourceGraphic" in2="effect1_backgroundBlur_0_142" result="shape"/>
</filter>
<linearGradient id="paint0_linear_0_142" x1="6.49999" y1="-44.2708" x2="86.7083" y2="131.771" gradientUnits="userSpaceOnUse">
<stop stop-color="#522D96"/>
<stop offset="0.755656" stop-color="#1A0E30" stop-opacity="0"/>
</linearGradient>
</defs>
</svg>
